<svg width="42" height="36" viewBox="0 0 42 36" fill="none" xmlns="http://www.w3.org/2000/svg">
<g clip-path="url(#clip0_813_265)">
<path d="M30.9422 13.5073L21.33 29.2389L24.597 36L34.2093 20.2684L30.9422 13.5073Z" fill="#806EFF"/>
<path d="M9.61229 0L0 15.7316L3.26702 22.4926L12.8793 6.76105L9.61229 0Z" fill="#806EFF"/>
<path d="M23.5516 13.5074L27.6753 6.76105L25.0326 1.31097L24.4083 0L16.1463 13.5074L6.53406 29.239L9.80107 36L19.4134 20.2684L18.3389 18.0295L16.1463 13.5074H23.5516Z" fill="#806EFF"/>
<path d="M41.6 20.2684L38.333 13.5073H30.9423L34.2093 20.2684L24.597 36H31.9878L41.6 20.2684Z" fill="black"/>
<path d="M20.27 6.76105L17.0029 0H9.61224L12.8793 6.76105L3.26697 22.4926H10.6577L20.27 6.76105Z" fill="black"/>
<path d="M26.8185 20.2684L35.066 6.76105L31.7989 0H24.4082L27.6752 6.76105L23.5515 13.5074H16.1463L19.4133 20.2684L9.80103 36H17.2063L25.4537 22.4926L26.8185 20.2684Z" fill="black"/>
</g>
<defs>
<clipPath id="clip0_813_265">
<rect width="41.6" height="36" fill="white"/>
</clipPath>
</defs>
</svg>
